#!OML:ASF F:\VICON\USERDATA\INSTALL\Justin_Nancy\Justin_Nancy.ASF
:FULLY-SPECIFIED
:DEGREES
91
root 0.179481 17.4615 -34.0302 8.92935 -1.90852 1.14355
lowerback 3.57897 -1.97591 -4.19895
upperback -2.76161 -2.7115 4.17486
thorax -4.48691 -1.14491 6.93491
lowerneck -8.52418 -1.15173 -12.7351
upperneck 17.6309 -0.565616 5.37214
head 6.84766 -0.664556 3.80732
rclavicle -4.47266e-015 0
rhumerus -32.9215 -2.36456 -81.7964
rradius 28.2584
rwrist 7.83874
rhand -18.7143 12.6876
rfingers 7.12502
rthumb 7.58093 -17.1566
lclavicle -4.47266e-015 0
lhumerus -41.7077 20.2744 79.421
lradius 29.296
lwrist -9.07555
lhand -14.5409 25.109
lfingers 7.12502
lthumb 11.6075 54.7676
rfemur -14.3036 4.88136 23.951
rtibia 30.0058
rfoot -18.9834 -10.1774
rtoes 12.9469
lfemur -17.5559 -5.02652 -18.9494
ltibia 34.3911
lfoot -18.2162 8.83014
ltoes -4.97675
92
root 0.16199 17.4601 -34.0281 9.08492 -1.93795 1.29057
lowerback 3.69229 -2.01415 -4.58399
upperback -2.89247 -2.78298 4.30764
thorax -4.65701 -1.15599 7.31503
lowerneck -8.18526 -1.03778 -13.0374
upperneck 17.6491 -0.420678 5.42819
head 6.782 -0.614258 3.88657
rclavicle 5.42682e-014 -3.4191e-014
rhumerus -32.9723 -1.72333 -81.7706
rradius 28.3972
rwrist 7.32789
rhand -17.8952 12.9186
rfingers 7.12502
rthumb 8.37143 -16.8955
lclavicle 5.42682e-014 -3.4191e-014
lhumerus -41.9447 20.3715 79.5598
lradius 29.5067
lwrist -9.34861
lhand -15.8206 24.4285
lfingers 7.12502
lthumb 10.3732 54.1527
rfemur -14.4284 4.921 23.8445
rtibia 29.9084
rfoot -18.8684 -10.2624
rtoes 11.994
lfemur -17.8491 -5.04229 -19.0209
ltibia 34.6632
lfoot -18.161 8.78117
ltoes -5.38718
93
root 0.146224 17.4509 -34.0248 9.14347 -1.82236 1.28939
lowerback 3.88594 -2.3045 -4.96948
upperback -3.04193 -3.18787 4.66548
thorax -4.82446 -1.32837 7.9665
lowerneck -7.96137 -0.61127 -13.4073
upperneck 17.7096 0.200413 5.34505
head 6.70415 -0.350661 3.96856
rclavicle 1.63003e-014 1.59028e-014
rhumerus -33.1423 -0.209034 -81.9587
rradius 28.5559
rwrist 5.97771
rhand -19.0117 12.2747
rfingers 7.12502
rthumb 7.2939 -17.5796
lclavicle 1.63003e-014 1.59028e-014
lhumerus -42.55 21.2693 79.4671
lradius 29.7477
lwrist -9.60771
lhand -16.6131 23.9888
lfingers 7.12502
lthumb 9.60862 53.7497
rfemur -14.3765 4.7488 23.9313
rtibia 29.7489
rfoot -18.8294 -10.2998
rtoes 10.7998
lfemur -18.1227 -4.83568 -18.9307
ltibia 35.0307
lfoot -18.136 8.49696
ltoes -5.8737
94
root 0.138594 17.4449 -34.0028 9.10648 -2.04735 1.22935
lowerback 4.05327 -2.67262 -5.36354
upperback -3.25619 -3.69354 5.14998
thorax -5.00913 -1.54462 8.7747
lowerneck -7.38421 -0.0485551 -13.9592
upperneck 17.5214 0.99432 5.15719
head 6.46834 -0.0182562 4.04674
rclavicle -1.22253e-014 -7.95139e-015
rhumerus -33.5331 2.15869 -82.2321
rradius 29.093
rwrist 4.91411
rhand -18.743 11.3371
rfingers 7.12502
rthumb 7.55323 -18.508
lclavicle -1.22253e-014 -7.95139e-015
lhumerus -43.6185 22.6404 79.1474
lradius 29.998
lwrist -9.97948
lhand -16.5183 23.999
lfingers 7.12502
lthumb 9.70012 53.7556
rfemur -14.1973 4.76873 23.9945
rtibia 29.6516
rfoot -18.978 -10.0922
rtoes 9.92186
lfemur -18.1549 -4.62419 -18.8906
ltibia 35.3896
lfoot -18.1474 8.55812
ltoes -5.64537
95
root 0.127784 17.446 -33.9905 9.15246 -2.19815 1.32103
lowerback 4.10772 -2.48958 -4.61784
upperback -3.66499 -3.41753 4.64211
thorax -5.59082 -1.40694 7.799
lowerneck -5.57954 -0.0738264 -14.1373
upperneck 16.9809 0.629361 5.60427
head 6.01159 -0.17042 4.17149
rclavicle -3.25013e-014 2.22639e-014
rhumerus -34.7285 1.20428 -82.2664
rradius 29.7595
rwrist 7.33465
rhand -18.3525 7.81977
rfingers 7.12502
rthumb 7.93015 -22.0115
lclavicle -3.25013e-014 2.22639e-014
lhumerus -44.3667 21.6426 78.5778
lradius 29.7197
lwrist -10.006
lhand -16.8539 21.4835
lfingers 7.12502
lthumb 9.37633 51.255
rfemur -14.1893 4.85707 23.8941
rtibia 29.6259
rfoot -19.1064 -10.0196
rtoes 8.36447
lfemur -18.2919 -4.61981 -18.9648
ltibia 35.6892
lfoot -18.0858 8.70692
ltoes -4.82123
96
root 0.115834 17.4522 -33.9875 9.29245 -2.00225 1.44742
lowerback 4.0584 -2.08886 -4.55128
upperback -2.95425 -2.89577 4.21393
thorax -4.91869 -1.20299 7.22588
lowerneck -7.98457 -0.826477 -12.8446
upperneck 17.3458 -0.168082 5.32325
head 6.62354 -0.481485 3.83355
rclavicle -3.16068e-014 1.51076e-014
rhumerus -33.3616 -0.316698 -82.4942
rradius 29.2452
rwrist 5.22452
rhand -19.7783 9.67064
rfingers 7.12502
rthumb 6.55385 -20.2079
lclavicle -3.16068e-014 1.51076e-014
lhumerus -42.095 20.5664 79.245
lradius 29.3953
lwrist -10.0092
lhand -16.884 20.7101
lfingers 7.12502
lthumb 9.34723 50.4829
rfemur -14.3444 4.64595 23.7988
rtibia 29.622
rfoot -19.1383 -9.92108
rtoes 10.992
lfemur -18.6536 -4.72243 -19.0118
ltibia 35.9588
lfoot -17.725 8.79679
ltoes -5.37074
97
root 0.105357 17.4548 -33.9743 9.30446 -2.10939 1.56893
lowerback 3.85082 -1.21343 -3.50145
upperback -2.25008 -1.70017 3.0864
thorax -4.30034 -0.695084 5.3095
lowerneck -9.8399 -1.7584 -11.5812
upperneck 17.5219 -1.49424 5.82407
head 7.11799 -0.976989 3.68724
rclavicle -1.78906e-015 -2.38542e-014
rhumerus -32.343 -4.10262 -82.5527
rradius 29.1003
rwrist 6.09673
rhand -19.6214 10.2326
rfingers 7.12502
rthumb 6.7053 -19.6412
lclavicle -1.78906e-015 -2.38542e-014
lhumerus -39.7021 17.2991 80.0388
lradius 29.3474
lwrist -9.47158
lhand -16.9261 21.6007
lfingers 7.12502
lthumb 9.30666 51.3753
rfemur -14.3197 4.64695 23.6609
rtibia 29.5922
rfoot -19.3394 -9.6524
rtoes 13.765
lfemur -18.8176 -4.62538 -19.1375
ltibia 36.2484
lfoot -17.4467 8.8951
ltoes -6.23181
98
root 0.09558 17.4539 -33.9557 9.24738 -2.26522 1.65519
lowerback 4.09626 -2.28377 -5.02662
upperback -2.94415 -3.18034 4.44944
thorax -4.85073 -1.32774 7.77401
lowerneck -7.48329 -0.275727 -13.2396
upperneck 16.8833 0.57001 5.33837
head 6.31771 -0.139301 3.94614
rclavicle -1.10325e-014 -3.18055e-014
rhumerus -33.1175 0.688192 -82.3891
rradius 29.0439
rwrist 6.21338
rhand -19.4607 10.7548
rfingers 7.12502
rthumb 6.86041 -19.114
lclavicle -1.10325e-014 -3.18055e-014
lhumerus -42.6382 21.0776 79.4375
lradius 30.2216
lwrist -9.40293
lhand -16.8243 22.7077
lfingers 7.12502
lthumb 9.40491 52.4779
rfemur -14.1342 4.64989 23.5819
rtibia 29.5302
rfoot -19.5218 -9.55229
rtoes 13.3603
lfemur -18.8841 -4.51234 -19.2351
ltibia 36.6088
lfoot -17.4046 8.85599
ltoes -6.20623
99
root 0.0873803 17.4536 -33.9383 9.21683 -2.10929 1.60329
lowerback 3.70008 -1.50961 -3.77134
upperback -2.10931 -2.0955 3.45537
thorax -4.00067 -0.89134 5.86915
lowerneck -9.12054 -1.3544 -12.2729
upperneck 16.9475 -0.903147 5.80841
head 6.75723 -0.734272 3.83732
rclavicle 2.44505e-014 -5.56597e-015
rhumerus -31.9063 -2.86648 -82.3577
rradius 28.898
rwrist 6.67986
rhand -19.5102 11.2802
rfingers 7.12502
rthumb 6.81266 -18.5902
lclavicle 2.44505e-014 -5.56597e-015
lhumerus -40.0312 18.3184 80.1601
lradius 29.9585
lwrist -9.44061
lhand -16.273 23.3853
lfingers 7.12502
lthumb 9.93674 53.1308
rfemur -13.9313 4.62597 23.7077
rtibia 29.3981
rfoot -19.6633 -9.62733
rtoes 13.8773
lfemur -19.1088 -4.49447 -19.1071
ltibia 37.0765
lfoot -16.9624 8.40779
ltoes -4.2302
100
root 0.079049 17.4422 -33.9217 9.18066 -1.99136 1.71126
lowerback 3.79002 -2.02233 -4.39343
upperback -2.41611 -2.80022 3.98532
thorax -4.23131 -1.20379 6.84663
lowerneck -7.87716 -0.949093 -13.1604
upperneck 16.9972 -0.348553 5.60129
head 6.51062 -0.556626 3.95636
rclavicle 2.88238e-015 -4.77083e-015
rhumerus -32.2555 -0.857965 -82.3133
rradius 29.0174
rwrist 6.56446
rhand -18.957 11.3501
rfingers 7.12502
rthumb 7.34663 -18.5023
lclavicle 2.88238e-015 -4.77083e-015
lhumerus -41.4477 19.6455 80.0001
lradius 30.6929
lwrist -9.45767
lhand -15.9849 25.0351
lfingers 7.12502
lthumb 10.2147 54.7671
rfemur -13.6952 4.69532 23.6735
rtibia 29.2117
rfoot -19.7594 -9.9108
rtoes 13.59
lfemur -19.4071 -4.4251 -19.1923
ltibia 37.6626
lfoot -16.1077 7.90796
ltoes -0.802012
101
root 0.0646637 17.4351 -33.9114 9.33242 -1.83863 1.70176
lowerback 4.12682 -2.28259 -4.73617
upperback -2.80095 -3.16714 4.29951
thorax -4.74029 -1.34196 7.43904
lowerneck -7.45636 -0.382355 -13.2509
upperneck 16.632 0.390685 5.54052
head 6.2478 -0.202911 3.9964
rclavicle 2.03754e-014 -2.38542e-015
rhumerus -32.6403 0.384617 -82.3509
rradius 29.2082
rwrist 5.76479
rhand -19.5616 10.8079
rfingers 7.12502
rthumb 6.76306 -19.0641
lclavicle 2.03754e-014 -2.38542e-015
lhumerus -42.3638 20.3405 79.7611
lradius 30.7958
lwrist -9.27342
lhand -16.617 22.9417
lfingers 7.12502
lthumb 9.6049 52.7028
rfemur -13.6794 4.8433 23.77
rtibia 28.9756
rfoot -19.7109 -10.2562
rtoes 12.2983
lfemur -19.9778 -4.26159 -19.1037
ltibia 38.365
lfoot -15.4964 7.62936
ltoes -0.197362
